<svg
  xmlns="http://www.w3.org/2000/svg"
  width="72.773"
  height="72.773"
  style="enable-background:new 0 0 72.773 72.773"
  xml:space="preserve"
><path
    d="M62.84 45.82V15.274L36.384 0 9.933 15.274V45.82l25.283 14.599v8.982L11.685 55.813l-1.168 2.023 25.867 14.937 25.872-14.937-1.168-2.023-23.536 13.588v-8.982L62.84 45.82zM37.552 3.371l21.915 12.65-21.915 12.553V3.371zm-2.336 25.203L13.303 16.021 35.216 3.368v25.206zm-1.182 2.016L12.269 43.058V18.121L34.034 30.59zm26.47-12.471v24.944L38.733 30.59l21.771-12.471zM13.381 45.11l23.006-13.178L59.396 45.11 37.555 57.718V42.095h-2.336v15.623L13.381 45.11z"
  /></svg>
