
<svg aria-hidden="true" style="position:absolute;width:0;height:0" xmlns="http://www.w3.org/2000/svg" overflow="hidden">
<defs>

<symbol id='down' viewBox="0 0 32 32"><path fill="royalblue" fill-rule="evenodd" d="M16 30C8.268 30 2 23.73 2 16S8.268 2 16 2s14 6.27 14 14-6.268 14-14 14Zm0-30C7.163 0 0 7.16 0 16s7.163 16 16 16 16-7.16 16-16S24.837 0 16 0Zm5.121 15.46L17 19.59V9a1.001 1.001 0 0 0-2 0v10.59l-4.121-4.13a1 1 0 0 0-1.414 0c-.391.4-.391 1.03 0 1.42l5.656 5.66c.24.24.568.31.879.25.311.06.639-.01.879-.25l5.656-5.66c.391-.39.391-1.02 0-1.42a1 1 0 0 0-1.414 0Z"/></symbol>

<symbol id="left" viewBox="0 0 32 32"><path fill="royalblue" fill-rule="evenodd" d="M23 15H12.414l4.122-4.12c.39-.39.39-1.02 0-1.42a1.002 1.002 0 0 0-1.415 0l-5.657 5.66a.986.986 0 0 0-.259.88c-.055.31.02.64.259.88l5.657 5.66a1.002 1.002 0 1 0 1.415-1.42L12.414 17H23c.552 0 1-.45 1-1s-.448-1-1-1Zm-7 15C8.268 30 2 23.73 2 16S8.268 2 16 2s14 6.27 14 14-6.268 14-14 14Zm0-30C7.164 0 0 7.16 0 16s7.164 16 16 16 16-7.16 16-16S24.836 0 16 0Z"/></symbol>

<symbol id='right' viewBox="0 0 32 32"><path fill="royalblue" fill-rule="evenodd" d="M16 30C8.268 30 2 23.73 2 16S8.268 2 16 2s14 6.27 14 14-6.268 14-14 14Zm0-30C7.163 0 0 7.16 0 16s7.163 16 16 16 16-7.16 16-16S24.837 0 16 0Zm6.535 15.12-5.656-5.66a1 1 0 0 0-1.414 0c-.391.4-.391 1.03 0 1.42L19.586 15H9a1.001 1.001 0 0 0 0 2h10.586l-4.121 4.12a1.006 1.006 0 0 0 0 1.42 1 1 0 0 0 1.414 0l5.656-5.66c.24-.24.315-.57.26-.88a.984.984 0 0 0-.26-.88Z"/></symbol>

<symbol id='rotate' fill="none" viewBox="0 0 22 22"><path stroke="royalblue" stroke-linecap="round" stroke-linejoin="round" stroke-width="1.5" d="M8.227 13.33a4 4 0 1 0 3.215-5.291C10.078 8.231 9.082 9.233 8 10m0 0V7m0 3h3m10 2a9 9 0 1 1-18 0 9 9 0 0 1 18 0Z"/></symbol>

</defs>
</svg>